<svg xmlns="http://www.w3.org/2000/svg" width="96mm" height="96mm" viewBox="0 0 96 96"><g transform="translate(-56.626 -86.451)"><rect width="92" height="92" x="58.626" y="88.451" rx="16" ry="16" style="fill:#e6e6e6;stroke-width:.7;stroke-linecap:round;stroke-linejoin:round;paint-order:stroke fill markers"/><path d="M-10.01 108.71c-3.185.322-6.324 1.107-9.243 2.429a28.54 28.54 0 0 0-9.688 7.18c-2.287 2.58-4.061 5.597-5.287 8.816-1.413 3.83-2.02 7.955-1.725 12.028a28.656 28.656 0 0 0 3.529 11.827 28.677 28.677 0 0 0 8.193 9.222c3.303 2.38 7.113 4.064 11.112 4.848 4.1.83 8.384.729 12.444-.278a28.369 28.369 0 0 0 10.97-5.428 28.452 28.452 0 0 0 7.778-9.708 28.503 28.503 0 0 0 .419-24.165 28.469 28.469 0 0 0-7.219-9.778 28.386 28.386 0 0 0-10.905-5.969c-3.311-.963-6.794-1.284-10.23-1.03l-.098.003z" style="fill:#5df;stroke-width:.974684" transform="translate(103.628 -12.115)"/><path d="M-7.526 107.331a29.788 29.788 0 0 0-29.787 29.788 29.788 29.788 0 0 0 29.787 29.787 29.788 29.788 0 0 0 29.788-29.787A29.788 29.788 0 0 0-7.526 107.33zm0 4.256a25.532 25.532 0 0 1 25.532 25.532A25.532 25.532 0 0 1-7.526 162.65a25.532 25.532 0 0 1-25.532-25.532 25.532 25.532 0 0 1 25.532-25.532z" style="fill:red;stroke-width:.595751;stroke-linecap:round;stroke-linejoin:round;paint-order:stroke fill markers" transform="translate(103.628 -12.115)"/><path d="m8.3 158.103 8.45 8.45a1.021 1.021 72.391 0 1 .284.896l-.218 1.266a1.021 1.021 72.391 0 0 .284.895l16.036 16.036a.53.53 0 0 0 .748 0l5.27-5.27a.53.53 90 0 0 0-.748l-16.036-16.036a1.021 1.021 17.609 0 0-.896-.284l-1.266.218a1.021 1.021 17.609 0 1-.895-.284l-8.45-8.45a.53.53 0 0 0-.749 0l-2.563 2.562a.53.53 90 0 0 0 .749z" style="fill:red;fill-opacity:1;stroke-width:.633478;stroke-linecap:round;stroke-linejoin:round;paint-order:stroke fill markers" transform="translate(103.628 -12.115)"/><path d="m49.146 127.678-31.54 18.21v-36.419z" style="fill:#fff;fill-opacity:1;stroke-width:.7;stroke-linecap:round;stroke-linejoin:round;paint-order:stroke fill markers" transform="translate(76.697 47.325) scale(.6084)"/></g></svg>