<svg xmlns="http://www.w3.org/2000/svg" width="26" height="26"><path fill="#777" d="M11.903 17.347h-1.461v-.93q-.196.133-.531.376-.329.234-.641.375-.367.18-.844.297-.476.125-1.117.125-1.18 0-2-.782-.82-.781-.82-1.992 0-.992.422-1.601.43-.618 1.218-.97.797-.35 1.914-.476 1.118-.125 2.399-.187v-.227q0-.5-.18-.828-.172-.328-.5-.516-.312-.18-.75-.242-.437-.062-.914-.062-.578 0-1.289.156-.71.148-1.469.437h-.078V8.808q.43-.117 1.242-.258.813-.14 1.602-.14.922 0 1.601.156.688.149 1.188.516.492.36.75.93.258.57.258 1.413zm-1.461-2.148v-2.43q-.672.04-1.586.117-.906.079-1.438.227-.632.18-1.023.562-.39.375-.39 1.04 0 .75.452 1.132.454.375 1.383.375.774 0 1.414-.297.64-.304 1.188-.726zm11.07 2.148h-1.46v-.93q-.196.133-.532.376-.328.234-.64.375-.368.18-.844.297-.477.125-1.118.125-1.18 0-2-.782-.82-.781-.82-1.992 0-.992.422-1.601.43-.618 1.219-.97.797-.35 1.914-.476 1.117-.125 2.398-.187v-.227q0-.5-.18-.828-.171-.328-.5-.516-.312-.18-.75-.242-.437-.062-.914-.062-.578 0-1.289.156-.71.148-1.468.437h-.079V8.808q.43-.117 1.243-.258.812-.14 1.601-.14.922 0 1.602.156.687.149 1.187.516.492.36.75.93.258.57.258 1.413zm-1.46-2.148v-2.43q-.673.04-1.587.117-.906.079-1.437.227-.633.18-1.024.562-.39.375-.39 1.04 0 .75.453 1.132.453.375 1.383.375.773 0 1.414-.297.64-.304 1.187-.726z" aria-label="aa"/></svg>