<svg xmlns="http://www.w3.org/2000/svg" width="26" height="26"><path fill="#777" d="M14.05 18.695h-1.648l-1.14-3.242H6.23l-1.14 3.242H3.519L7.753 7.063h2.063zm-3.265-4.57-2.04-5.71-2.046 5.71zm11.695 4.57h-1.461v-.93q-.195.133-.531.376-.328.234-.641.375-.367.18-.844.297-.476.125-1.117.125-1.18 0-2-.782-.82-.781-.82-1.992 0-.992.422-1.601.43-.618 1.218-.97.797-.35 1.914-.476 1.118-.125 2.399-.187v-.227q0-.5-.18-.828-.172-.328-.5-.516-.312-.18-.75-.242-.437-.062-.914-.062-.578 0-1.289.156-.71.148-1.469.437h-.078v-1.492q.43-.117 1.242-.258.813-.14 1.602-.14.922 0 1.602.156.687.149 1.187.516.492.36.75.93.258.57.258 1.413zm-1.461-2.148v-2.43q-.672.04-1.586.117-.906.079-1.438.227-.632.18-1.023.562-.39.375-.39 1.04 0 .75.453 1.132.453.375 1.382.375.774 0 1.414-.297.641-.304 1.188-.726z" aria-label="Aa"/></svg>