<svg xmlns="http://www.w3.org/2000/svg" width="26" height="26"><path fill="#777" d="m6.883 6.801-.336 4.523H5.516L5.18 6.801zm-3.016 0-.336 4.523H2.5l-.336-4.523zm12.555 12.156h-1.461v-.93q-.195.133-.531.376-.328.234-.641.375-.367.18-.844.296-.476.125-1.117.125-1.18 0-2-.78-.82-.782-.82-1.993 0-.992.422-1.602.43-.617 1.218-.968.797-.352 1.914-.477 1.118-.125 2.399-.187v-.227q0-.5-.18-.828-.172-.328-.5-.516-.312-.18-.75-.242-.437-.062-.914-.062-.578 0-1.289.156-.71.148-1.469.437h-.078v-1.492q.43-.117 1.242-.258.813-.14 1.602-.14.922 0 1.602.156.687.148 1.187.516.492.359.75.93.258.57.258 1.413zm-1.461-2.148v-2.43q-.672.04-1.586.117-.906.078-1.438.227-.632.18-1.023.562-.39.375-.39 1.04 0 .75.453 1.132.453.375 1.382.375.774 0 1.414-.297.641-.304 1.188-.726zm8.875-10.008-.336 4.523h-1.031l-.336-4.523zm-3.016 0-.336 4.523h-1.03l-.337-4.523z" aria-label="&quot;a&quot;"/></svg>