<svg xmlns="http://www.w3.org/2000/svg" xml:space="preserve" width="26" height="26"><path fill="#ccc" d="M10.784 2.226a11.016 11.016 0 0 1 1.16-.175 11.212 11.212 0 0 1 1.169-.052.392.392 0 0 1 .134.759A7.31 7.31 0 0 0 9.495 6.09a7.3 7.3 0 0 0-.733 4.956l.002.012a7.308 7.308 0 0 0 3.148 4.639 7.306 7.306 0 0 0 5.501 1.06l.013-.003a7.292 7.292 0 0 0 3.634-1.93 7.366 7.366 0 0 0 2.028-3.608.391.391 0 0 1 .768.025c.473 2.9-.241 5.741-1.8 8.004a10.955 10.955 0 0 1-6.836 4.527 10.97 10.97 0 0 1-8.267-1.586 10.973 10.973 0 0 1-4.725-6.971 10.964 10.964 0 0 1 1.479-8.1 10.974 10.974 0 0 1 6.692-4.804l.19-.045h.002z" style="fill:#ccc;stroke-width:.179024"/></svg>