<svg xmlns="http://www.w3.org/2000/svg" width="26" height="26" viewBox="0 0 6.879 6.879"><path fill="#7137c8" d="M3.439 0a3.44 3.44 0 0 0-3.44 3.44 3.44 3.44 0 0 0 3.44 3.44 3.44 3.44 0 0 0 3.44-3.44A3.44 3.44 0 0 0 3.439 0zm0 .794A2.646 2.646 0 0 1 6.085 3.44a2.646 2.646 0 0 1-2.646 2.645A2.646 2.646 0 0 1 .794 3.44 2.646 2.646 0 0 1 3.439.794z"/><path fill="#7137c8" d="M3.481 1.204q.37 0 .654.135.283.135.434.359.15.223.15.474 0 .243-.081.419-.082.173-.201.289-.12.113-.315.258-.182.138-.286.236-.104.097-.176.242-.072.144-.072.343v.216h-.532v-.248q0-.261.089-.45.09-.191.216-.317.13-.126.334-.28.163-.126.257-.21.095-.089.158-.205.063-.116.063-.261 0-.261-.211-.409-.208-.15-.535-.15-.235 0-.468.116-.233.113-.421.342l-.378-.276q.529-.623 1.321-.623zm-.145 3.628q.12 0 .217.057.098.057.154.154.057.094.057.208 0 .116-.057.213-.056.098-.154.154-.097.057-.217.057-.176 0-.295-.123-.12-.122-.12-.301 0-.114.054-.208.056-.097.15-.154.095-.057.211-.057z" aria-label="?"/></svg>