<svg xmlns="http://www.w3.org/2000/svg" width="26" height="26"><path fill="#777" d="m8.039 5.734-5.601 14.53H1.085l5.578-14.53Zm8.774 12.156h-1.461v-.93q-.195.133-.531.375-.329.235-.641.375-.367.18-.844.297-.476.125-1.117.125-1.18 0-2-.781-.82-.781-.82-1.992 0-.993.422-1.602.43-.617 1.218-.969.797-.351 1.914-.476 1.118-.125 2.399-.188v-.226q0-.5-.18-.828-.172-.329-.5-.516-.312-.18-.75-.242-.437-.063-.914-.063-.578 0-1.289.156-.71.149-1.469.438h-.078V9.351q.43-.117 1.242-.258.813-.14 1.602-.14.922 0 1.602.156.687.148 1.187.515.492.36.75.93.258.57.258 1.414zm-1.461-2.15v-2.43q-.672.04-1.586.118-.906.078-1.438.226-.632.18-1.023.563-.39.375-.39 1.04 0 .75.453 1.132.453.375 1.382.375.774 0 1.414-.297.641-.305 1.188-.727Zm9.563-10.006-5.602 14.53h-1.352l5.578-14.53Z" aria-label="/a/"/></svg>