<svg xmlns="http://www.w3.org/2000/svg" width="26" height="26" data-name="Layer 1"><path fill="#333" d="M6.618 3.21a.797.797 0 1 1 1.38-.8l1.026 1.772a.801.801 0 1 1-1.382.811Zm6.38 2.637A7.147 7.147 0 1 1 7.942 7.94a7.127 7.127 0 0 1 5.055-2.094Zm-.637-4.505a.801.801 0 1 1 1.601 0v2.04a.801.801 0 1 1-1.6 0zm5.92 1.237a.797.797 0 1 1 1.382.791l-1.027 1.778a.797.797 0 1 1-1.381-.796l1.026-1.775zm4.5 4.037a.798.798 0 1 1 .8 1.382l-1.776 1.027a.801.801 0 1 1-.811-1.382zm1.879 5.746a.801.801 0 1 1 0 1.6h-2.051a.801.801 0 1 1 0-1.6zm-1.248 5.92a.797.797 0 1 1-.793 1.381l-1.777-1.026a.797.797 0 1 1 .789-1.384l1.775 1.027zm-4.035 4.498a.798.798 0 1 1-1.382.799l-1.03-1.775a.801.801 0 0 1 1.381-.812l1.027 1.778zm-5.746 1.878a.801.801 0 1 1-1.6 0v-2.05a.801.801 0 1 1 1.6 0zm-5.92-1.247a.797.797 0 0 1-1.38-.794l1.026-1.777a.797.797 0 1 1 1.381.79l-1.026 1.775Zm-4.5-4.036a.798.798 0 1 1-.798-1.381l1.77-1.03a.803.803 0 1 1 .812 1.385l-1.777 1.026ZM1.344 13.63a.801.801 0 1 1 0-1.6h2.041a.801.801 0 1 1 0 1.6zm1.238-5.92a.797.797 0 1 1 .79-1.381L5.15 7.355a.797.797 0 1 1-.795 1.382Z" style="fill:#666;stroke-width:.202877"/></svg>